<mxfile host="app.diagrams.net" agent="Mozilla/5.0 (Windows NT 10.0; Win64; x64) AppleWebKit/537.36 (KHTML, like Gecko) Chrome/128.0.0.0 Safari/537.36" version="24.7.14">
  <diagram name="第 1 页" id="LvspWGDVvsqheb7RMKRR">
    <mxGraphModel dx="4118" dy="2120" grid="1" gridSize="10" guides="1" tooltips="1" connect="1" arrows="1" fold="1" page="1" pageScale="1" pageWidth="4000" pageHeight="2424" background="none" math="0" shadow="0">
      <root>
        <mxCell id="0" />
        <mxCell id="1" parent="0" />
        <mxCell id="ktVLUo-EPOUu5IFAiA05-72" value="" style="rounded=0;whiteSpace=wrap;html=1;movable=0;resizable=0;rotatable=0;deletable=0;editable=0;locked=1;connectable=0;strokeWidth=3;" parent="1" vertex="1">
          <mxGeometry x="2180" y="1500" width="1730" height="900" as="geometry" />
        </mxCell>
        <mxCell id="ktVLUo-EPOUu5IFAiA05-36" value="" style="rounded=0;whiteSpace=wrap;html=1;movable=0;resizable=0;rotatable=0;deletable=0;editable=0;locked=1;connectable=0;strokeWidth=3;" parent="1" vertex="1">
          <mxGeometry x="2180" y="510" width="1730" height="880" as="geometry" />
        </mxCell>
        <mxCell id="ktVLUo-EPOUu5IFAiA05-21" value="" style="rounded=0;whiteSpace=wrap;html=1;strokeColor=#000000;strokeWidth=2;" parent="1" vertex="1">
          <mxGeometry x="30" y="580" width="1780" height="1280" as="geometry" />
        </mxCell>
        <mxCell id="ktVLUo-EPOUu5IFAiA05-16" value="&lt;font style=&quot;font-size: 30px;&quot; face=&quot;Comic Sans MS&quot;&gt;&lt;b&gt;Scheduler&lt;/b&gt;&lt;/font&gt;" style="rounded=0;whiteSpace=wrap;html=1;strokeWidth=4;" parent="1" vertex="1">
          <mxGeometry x="100" y="1420" width="230" height="100" as="geometry" />
        </mxCell>
        <mxCell id="ktVLUo-EPOUu5IFAiA05-4" value="" style="rounded=0;whiteSpace=wrap;html=1;strokeWidth=3;" parent="1" vertex="1">
          <mxGeometry x="60" y="670" width="1170" height="530" as="geometry" />
        </mxCell>
        <mxCell id="ktVLUo-EPOUu5IFAiA05-15" value="" style="endArrow=classic;html=1;rounded=0;strokeWidth=6;curved=0;endSize=6;exitX=0.5;exitY=0;exitDx=0;exitDy=0;entryX=0.2;entryY=0.998;entryDx=0;entryDy=0;entryPerimeter=0;" parent="1" source="ktVLUo-EPOUu5IFAiA05-14" target="ktVLUo-EPOUu5IFAiA05-9" edge="1">
          <mxGeometry width="50" height="50" relative="1" as="geometry">
            <mxPoint x="604.5799999999999" y="1265" as="sourcePoint" />
            <mxPoint x="560" y="1040" as="targetPoint" />
          </mxGeometry>
        </mxCell>
        <mxCell id="ktVLUo-EPOUu5IFAiA05-5" value="&lt;div style=&quot;font-size: 30px;&quot;&gt;&lt;font style=&quot;font-size: 30px;&quot; face=&quot;Comic Sans MS&quot;&gt;&lt;b&gt;authentication&lt;/b&gt;&lt;/font&gt;&lt;/div&gt;&lt;div style=&quot;font-size: 30px;&quot;&gt;&lt;font style=&quot;font-size: 30px;&quot; face=&quot;Comic Sans MS&quot;&gt;&lt;b&gt;authorization&lt;/b&gt;&lt;/font&gt;&lt;/div&gt;" style="rounded=0;whiteSpace=wrap;html=1;strokeWidth=5;" parent="1" vertex="1">
          <mxGeometry x="670" y="620" width="290" height="110" as="geometry" />
        </mxCell>
        <mxCell id="ktVLUo-EPOUu5IFAiA05-6" value="&lt;b&gt;&lt;font face=&quot;Comic Sans MS&quot; style=&quot;font-size: 30px;&quot;&gt;APIs&lt;/font&gt;&lt;/b&gt;" style="text;html=1;align=center;verticalAlign=middle;whiteSpace=wrap;rounded=0;" parent="1" vertex="1">
          <mxGeometry x="90" y="710" width="60" height="30" as="geometry" />
        </mxCell>
        <mxCell id="ktVLUo-EPOUu5IFAiA05-7" value="" style="group;strokeColor=default;strokeWidth=5;" parent="1" vertex="1" connectable="0">
          <mxGeometry x="620" y="200" width="400" height="120" as="geometry" />
        </mxCell>
        <mxCell id="ktVLUo-EPOUu5IFAiA05-1" value="&lt;font face=&quot;Comic Sans MS&quot; style=&quot;font-size: 30px;&quot;&gt;&lt;b&gt;Kubectl(user commands)&lt;/b&gt;&lt;/font&gt;" style="rounded=0;whiteSpace=wrap;html=1;" parent="ktVLUo-EPOUu5IFAiA05-7" vertex="1">
          <mxGeometry width="400" height="119.99999999999996" as="geometry" />
        </mxCell>
        <mxCell id="ktVLUo-EPOUu5IFAiA05-2" value="" style="endArrow=classic;html=1;rounded=0;strokeWidth=6;exitX=0.4;exitY=1.015;exitDx=0;exitDy=0;exitPerimeter=0;entryX=0.521;entryY=0.006;entryDx=0;entryDy=0;entryPerimeter=0;" parent="ktVLUo-EPOUu5IFAiA05-7" target="ktVLUo-EPOUu5IFAiA05-5" edge="1">
          <mxGeometry width="50" height="50" relative="1" as="geometry">
            <mxPoint x="199.40999999999997" y="119.99999999999999" as="sourcePoint" />
            <mxPoint x="210" y="573.3333333333331" as="targetPoint" />
          </mxGeometry>
        </mxCell>
        <mxCell id="ktVLUo-EPOUu5IFAiA05-8" value="" style="endArrow=classic;html=1;rounded=0;strokeWidth=6;exitX=0.518;exitY=1.001;exitDx=0;exitDy=0;exitPerimeter=0;entryX=0.521;entryY=0;entryDx=0;entryDy=0;entryPerimeter=0;" parent="1" source="ktVLUo-EPOUu5IFAiA05-5" target="ktVLUo-EPOUu5IFAiA05-9" edge="1">
          <mxGeometry width="50" height="50" relative="1" as="geometry">
            <mxPoint x="820.2299999999999" y="735" as="sourcePoint" />
            <mxPoint x="819.3799999999999" y="815" as="targetPoint" />
          </mxGeometry>
        </mxCell>
        <mxCell id="ktVLUo-EPOUu5IFAiA05-9" value="&lt;div style=&quot;font-size: 30px; line-height: 90%;&quot;&gt;&lt;font face=&quot;Comic Sans MS&quot; style=&quot;font-size: 30px;&quot;&gt;&lt;b&gt;REST&lt;/b&gt;&lt;/font&gt;&lt;/div&gt;&lt;div style=&quot;font-size: 30px; line-height: 90%;&quot;&gt;&lt;font face=&quot;Comic Sans MS&quot; style=&quot;font-size: 30px;&quot;&gt;&lt;b&gt;(pods, services,&lt;/b&gt;&lt;/font&gt;&lt;/div&gt;&lt;div style=&quot;font-size: 30px; line-height: 90%;&quot;&gt;&lt;font face=&quot;Comic Sans MS&quot; style=&quot;font-size: 30px;&quot;&gt;&lt;b&gt;rep. controllers)&lt;/b&gt;&lt;/font&gt;&lt;/div&gt;" style="rounded=0;whiteSpace=wrap;html=1;strokeWidth=5;" parent="1" vertex="1">
          <mxGeometry x="570" y="870" width="480" height="170" as="geometry" />
        </mxCell>
        <mxCell id="ktVLUo-EPOUu5IFAiA05-10" value="&lt;div style=&quot;font-size: 30px;&quot;&gt;&lt;font face=&quot;Comic Sans MS&quot; style=&quot;font-size: 30px;&quot;&gt;&lt;b&gt;scheduling&lt;/b&gt;&lt;/font&gt;&lt;/div&gt;&lt;div style=&quot;font-size: 30px;&quot;&gt;&lt;font face=&quot;Comic Sans MS&quot; style=&quot;font-size: 30px;&quot;&gt;&lt;b&gt;actuator&lt;/b&gt;&lt;/font&gt;&lt;/div&gt;" style="rounded=0;whiteSpace=wrap;html=1;strokeWidth=5;" parent="1" vertex="1">
          <mxGeometry x="110" y="875" width="160" height="160" as="geometry" />
        </mxCell>
        <mxCell id="ktVLUo-EPOUu5IFAiA05-11" value="" style="endArrow=classic;html=1;rounded=0;strokeWidth=6;exitX=1;exitY=0.5;exitDx=0;exitDy=0;entryX=0;entryY=0.5;entryDx=0;entryDy=0;" parent="1" source="ktVLUo-EPOUu5IFAiA05-10" target="ktVLUo-EPOUu5IFAiA05-9" edge="1">
          <mxGeometry width="50" height="50" relative="1" as="geometry">
            <mxPoint x="310.84999999999997" y="860" as="sourcePoint" />
            <mxPoint x="310" y="940" as="targetPoint" />
          </mxGeometry>
        </mxCell>
        <mxCell id="ktVLUo-EPOUu5IFAiA05-13" value="" style="endArrow=classic;html=1;rounded=0;strokeWidth=6;curved=0;endSize=6;exitX=0.5;exitY=0;exitDx=0;exitDy=0;" parent="1" source="ktVLUo-EPOUu5IFAiA05-14" edge="1">
          <mxGeometry width="50" height="50" relative="1" as="geometry">
            <mxPoint x="180" y="1260" as="sourcePoint" />
            <mxPoint x="180.84999999999997" y="1030" as="targetPoint" />
          </mxGeometry>
        </mxCell>
        <mxCell id="ktVLUo-EPOUu5IFAiA05-14" value="&lt;font style=&quot;font-size: 30px;&quot; face=&quot;Comic Sans MS&quot;&gt;&lt;b&gt;Scheduler&lt;/b&gt;&lt;/font&gt;" style="rounded=0;whiteSpace=wrap;html=1;strokeWidth=4;" parent="1" vertex="1">
          <mxGeometry x="70" y="1360" width="230" height="100" as="geometry" />
        </mxCell>
        <mxCell id="ktVLUo-EPOUu5IFAiA05-17" value="&lt;div style=&quot;font-size: 30px;&quot;&gt;&lt;font style=&quot;font-size: 30px;&quot; face=&quot;Comic Sans MS&quot;&gt;&lt;b style=&quot;font-size: 30px;&quot;&gt;controller manager&lt;/b&gt;&lt;/font&gt;&lt;/div&gt;&lt;div style=&quot;font-size: 30px;&quot;&gt;&lt;font style=&quot;font-size: 30px;&quot; face=&quot;Comic Sans MS&quot;&gt;&lt;b style=&quot;font-size: 30px;&quot;&gt;(replication controller etc.)&lt;/b&gt;&lt;/font&gt;&lt;/div&gt;" style="rounded=0;whiteSpace=wrap;html=1;fontSize=30;strokeWidth=3;" parent="1" vertex="1">
          <mxGeometry x="500" y="1290" width="640" height="210" as="geometry" />
        </mxCell>
        <mxCell id="ktVLUo-EPOUu5IFAiA05-19" value="" style="endArrow=classic;html=1;rounded=0;strokeWidth=6;entryX=0.483;entryY=1.002;entryDx=0;entryDy=0;entryPerimeter=0;exitX=0.471;exitY=0.006;exitDx=0;exitDy=0;exitPerimeter=0;" parent="1" source="ktVLUo-EPOUu5IFAiA05-17" target="ktVLUo-EPOUu5IFAiA05-9" edge="1">
          <mxGeometry width="50" height="50" relative="1" as="geometry">
            <mxPoint x="780" y="1290" as="sourcePoint" />
            <mxPoint x="840" y="1140" as="targetPoint" />
          </mxGeometry>
        </mxCell>
        <mxCell id="ktVLUo-EPOUu5IFAiA05-20" value="" style="endArrow=classic;startArrow=classic;html=1;rounded=0;strokeWidth=6;entryX=1;entryY=1;entryDx=0;entryDy=0;" parent="1" target="ktVLUo-EPOUu5IFAiA05-9" edge="1">
          <mxGeometry width="50" height="50" relative="1" as="geometry">
            <mxPoint x="1410" y="1540" as="sourcePoint" />
            <mxPoint x="1460" y="1450" as="targetPoint" />
          </mxGeometry>
        </mxCell>
        <mxCell id="ktVLUo-EPOUu5IFAiA05-22" value="&lt;div style=&quot;font-size: 30px;&quot;&gt;&lt;font face=&quot;Comic Sans MS&quot; style=&quot;font-size: 30px;&quot;&gt;&lt;b&gt;Distributed&lt;/b&gt;&lt;/font&gt;&lt;/div&gt;&lt;div style=&quot;font-size: 30px;&quot;&gt;&lt;font face=&quot;Comic Sans MS&quot; style=&quot;font-size: 30px;&quot;&gt;&lt;b&gt;Watchable&lt;/b&gt;&lt;/font&gt;&lt;/div&gt;&lt;div style=&quot;font-size: 30px;&quot;&gt;&lt;font face=&quot;Comic Sans MS&quot; style=&quot;font-size: 30px;&quot;&gt;&lt;b&gt;Storage&lt;/b&gt;&lt;/font&gt;&lt;/div&gt;&lt;div style=&quot;font-size: 30px;&quot;&gt;&lt;font face=&quot;Comic Sans MS&quot; style=&quot;font-size: 30px;&quot;&gt;&lt;b&gt;(implemented via etcd)&lt;/b&gt;&lt;/font&gt;&lt;/div&gt;" style="rounded=0;whiteSpace=wrap;html=1;strokeWidth=4;" parent="1" vertex="1">
          <mxGeometry x="1150" y="1540" width="530" height="440" as="geometry" />
        </mxCell>
        <mxCell id="ktVLUo-EPOUu5IFAiA05-23" value="&lt;div style=&quot;font-size: 40px;&quot;&gt;&lt;b style=&quot;&quot;&gt;&lt;font face=&quot;Comic Sans MS&quot; style=&quot;font-size: 40px;&quot;&gt;Master components&lt;/font&gt;&lt;/b&gt;&lt;/div&gt;&lt;div style=&quot;font-size: 40px;&quot;&gt;&lt;b&gt;&lt;font face=&quot;Comic Sans MS&quot; style=&quot;font-size: 40px;&quot;&gt;Colocated, or spread across machines,&lt;/font&gt;&lt;/b&gt;&lt;/div&gt;&lt;div style=&quot;font-size: 40px;&quot;&gt;&lt;b style=&quot;&quot;&gt;&lt;font face=&quot;Comic Sans MS&quot; style=&quot;font-size: 40px;&quot;&gt;as dictated by cluster size.&lt;/font&gt;&lt;/b&gt;&lt;/div&gt;" style="text;html=1;align=left;verticalAlign=middle;whiteSpace=wrap;rounded=0;" parent="1" vertex="1">
          <mxGeometry x="70" y="1610" width="940" height="230" as="geometry" />
        </mxCell>
        <mxCell id="ktVLUo-EPOUu5IFAiA05-30" value="" style="endArrow=classic;startArrow=classic;html=1;rounded=0;edgeStyle=entityRelationEdgeStyle;strokeWidth=6;exitX=0.999;exitY=0.57;exitDx=0;exitDy=0;exitPerimeter=0;entryX=0;entryY=0.5;entryDx=0;entryDy=0;" parent="1" source="ktVLUo-EPOUu5IFAiA05-4" target="ktVLUo-EPOUu5IFAiA05-39" edge="1">
          <mxGeometry width="50" height="50" relative="1" as="geometry">
            <mxPoint x="2310" y="590" as="sourcePoint" />
            <mxPoint x="2370" y="720" as="targetPoint" />
            <Array as="points">
              <mxPoint x="2180" y="940" />
            </Array>
          </mxGeometry>
        </mxCell>
        <mxCell id="ktVLUo-EPOUu5IFAiA05-34" value="" style="edgeStyle=orthogonalEdgeStyle;rounded=0;orthogonalLoop=1;jettySize=auto;html=1;strokeWidth=6;" parent="1" source="ktVLUo-EPOUu5IFAiA05-32" edge="1">
          <mxGeometry relative="1" as="geometry">
            <mxPoint x="3024.999999999999" y="355" as="targetPoint" />
          </mxGeometry>
        </mxCell>
        <mxCell id="ktVLUo-EPOUu5IFAiA05-32" value="&lt;font face=&quot;Comic Sans MS&quot; style=&quot;font-size: 30px;&quot;&gt;&lt;b&gt;Internet&lt;/b&gt;&lt;/font&gt;" style="ellipse;shape=cloud;whiteSpace=wrap;html=1;strokeWidth=6;" parent="1" vertex="1">
          <mxGeometry x="2810" y="50" width="430" height="170" as="geometry" />
        </mxCell>
        <mxCell id="ktVLUo-EPOUu5IFAiA05-35" value="&lt;font face=&quot;Comic Sans MS&quot; style=&quot;font-size: 30px;&quot;&gt;&lt;b&gt;Firewall&lt;/b&gt;&lt;/font&gt;" style="rounded=0;whiteSpace=wrap;html=1;strokeWidth=3;" parent="1" vertex="1">
          <mxGeometry x="2910" y="360" width="230" height="90" as="geometry" />
        </mxCell>
        <mxCell id="ktVLUo-EPOUu5IFAiA05-38" value="&lt;font style=&quot;font-size: 30px;&quot; face=&quot;Comic Sans MS&quot;&gt;&lt;b&gt;Node&lt;/b&gt;&lt;/font&gt;" style="text;html=1;align=center;verticalAlign=middle;whiteSpace=wrap;rounded=0;" parent="1" vertex="1">
          <mxGeometry x="2220" y="600" width="60" as="geometry" />
        </mxCell>
        <mxCell id="ktVLUo-EPOUu5IFAiA05-39" value="&lt;b&gt;&lt;font style=&quot;font-size: 30px;&quot; face=&quot;Comic Sans MS&quot;&gt;kubelet&lt;/font&gt;&lt;/b&gt;" style="rounded=0;whiteSpace=wrap;html=1;strokeWidth=3;" parent="1" vertex="1">
          <mxGeometry x="2370" y="675" width="230" height="100" as="geometry" />
        </mxCell>
        <mxCell id="ktVLUo-EPOUu5IFAiA05-40" value="&lt;b&gt;&lt;font style=&quot;font-size: 30px;&quot; face=&quot;Comic Sans MS&quot;&gt;Proxy&lt;/font&gt;&lt;/b&gt;" style="rounded=0;whiteSpace=wrap;html=1;strokeWidth=3;" parent="1" vertex="1">
          <mxGeometry x="2910" y="675" width="230" height="100" as="geometry" />
        </mxCell>
        <mxCell id="ktVLUo-EPOUu5IFAiA05-43" value="" style="edgeStyle=orthogonalEdgeStyle;rounded=0;orthogonalLoop=1;jettySize=auto;html=1;strokeWidth=6;exitX=0.523;exitY=0.996;exitDx=0;exitDy=0;exitPerimeter=0;entryX=0.5;entryY=0;entryDx=0;entryDy=0;" parent="1" target="ktVLUo-EPOUu5IFAiA05-40" edge="1">
          <mxGeometry relative="1" as="geometry">
            <mxPoint x="3025.03" y="450" as="sourcePoint" />
            <mxPoint x="3024.739999999999" y="605.36" as="targetPoint" />
          </mxGeometry>
        </mxCell>
        <mxCell id="ktVLUo-EPOUu5IFAiA05-44" value="" style="rounded=0;whiteSpace=wrap;html=1;strokeWidth=3;movable=0;resizable=0;rotatable=0;deletable=0;editable=0;locked=1;connectable=0;" parent="1" vertex="1">
          <mxGeometry x="2230" y="820" width="1590" height="450" as="geometry" />
        </mxCell>
        <mxCell id="ktVLUo-EPOUu5IFAiA05-56" value="" style="group" parent="1" vertex="1" connectable="0">
          <mxGeometry x="2300" y="910" width="360" height="275" as="geometry" />
        </mxCell>
        <mxCell id="ktVLUo-EPOUu5IFAiA05-45" value="" style="rounded=0;whiteSpace=wrap;html=1;strokeWidth=2;movable=1;resizable=1;rotatable=1;deletable=1;editable=1;locked=0;connectable=1;" parent="ktVLUo-EPOUu5IFAiA05-56" vertex="1">
          <mxGeometry width="360" height="275" as="geometry" />
        </mxCell>
        <mxCell id="ktVLUo-EPOUu5IFAiA05-46" value="&lt;font face=&quot;Comic Sans MS&quot; style=&quot;font-size: 30px;&quot;&gt;&lt;b&gt;Pod&lt;/b&gt;&lt;/font&gt;" style="text;html=1;align=center;verticalAlign=middle;whiteSpace=wrap;rounded=0;" parent="ktVLUo-EPOUu5IFAiA05-56" vertex="1">
          <mxGeometry x="10" y="13.306451612903226" width="60" height="26.612903225806452" as="geometry" />
        </mxCell>
        <mxCell id="ktVLUo-EPOUu5IFAiA05-55" value="" style="group;strokeWidth=2;strokeColor=none;" parent="ktVLUo-EPOUu5IFAiA05-56" vertex="1" connectable="0">
          <mxGeometry x="70" y="99.79838709677419" width="200" height="75.40322580645162" as="geometry" />
        </mxCell>
        <mxCell id="ktVLUo-EPOUu5IFAiA05-47" value="&lt;b&gt;&lt;font face=&quot;Comic Sans MS&quot; style=&quot;font-size: 30px;&quot;&gt;cAdvisor&lt;/font&gt;&lt;/b&gt;" style="rounded=0;whiteSpace=wrap;html=1;strokeWidth=2;" parent="ktVLUo-EPOUu5IFAiA05-55" vertex="1">
          <mxGeometry x="20" y="22.17741935483871" width="180" height="53.225806451612904" as="geometry" />
        </mxCell>
        <mxCell id="ktVLUo-EPOUu5IFAiA05-53" value="&lt;b&gt;&lt;font face=&quot;Comic Sans MS&quot; style=&quot;font-size: 30px;&quot;&gt;cAdvisor&lt;/font&gt;&lt;/b&gt;" style="rounded=0;whiteSpace=wrap;html=1;strokeWidth=2;" parent="ktVLUo-EPOUu5IFAiA05-55" vertex="1">
          <mxGeometry x="10" y="13.306451612903226" width="180" height="51.00806451612904" as="geometry" />
        </mxCell>
        <mxCell id="ktVLUo-EPOUu5IFAiA05-54" value="&lt;b&gt;&lt;font face=&quot;Comic Sans MS&quot; style=&quot;font-size: 30px;&quot;&gt;cAdvisor&lt;/font&gt;&lt;/b&gt;" style="rounded=0;whiteSpace=wrap;html=1;strokeWidth=2;" parent="ktVLUo-EPOUu5IFAiA05-55" vertex="1">
          <mxGeometry width="180" height="53.225806451612904" as="geometry" />
        </mxCell>
        <mxCell id="ktVLUo-EPOUu5IFAiA05-58" value="" style="rounded=0;whiteSpace=wrap;html=1;strokeWidth=2;movable=1;resizable=1;rotatable=1;deletable=1;editable=1;locked=0;connectable=1;" parent="1" vertex="1">
          <mxGeometry x="2845" y="910" width="360" height="275" as="geometry" />
        </mxCell>
        <mxCell id="ktVLUo-EPOUu5IFAiA05-59" value="&lt;font face=&quot;Comic Sans MS&quot; style=&quot;font-size: 30px;&quot;&gt;&lt;b&gt;Pod&lt;/b&gt;&lt;/font&gt;" style="text;html=1;align=center;verticalAlign=middle;whiteSpace=wrap;rounded=0;" parent="1" vertex="1">
          <mxGeometry x="2855" y="935" width="60" height="30" as="geometry" />
        </mxCell>
        <mxCell id="ktVLUo-EPOUu5IFAiA05-60" value="" style="group;strokeWidth=2;strokeColor=none;" parent="1" vertex="1" connectable="0">
          <mxGeometry x="2930" y="1000" width="200" height="85" as="geometry" />
        </mxCell>
        <mxCell id="ktVLUo-EPOUu5IFAiA05-61" value="&lt;b&gt;&lt;font face=&quot;Comic Sans MS&quot; style=&quot;font-size: 30px;&quot;&gt;cAdvisor&lt;/font&gt;&lt;/b&gt;" style="rounded=0;whiteSpace=wrap;html=1;strokeWidth=2;" parent="ktVLUo-EPOUu5IFAiA05-60" vertex="1">
          <mxGeometry x="20" y="25" width="180" height="60" as="geometry" />
        </mxCell>
        <mxCell id="ktVLUo-EPOUu5IFAiA05-62" value="&lt;b&gt;&lt;font face=&quot;Comic Sans MS&quot; style=&quot;font-size: 30px;&quot;&gt;cAdvisor&lt;/font&gt;&lt;/b&gt;" style="rounded=0;whiteSpace=wrap;html=1;strokeWidth=2;" parent="ktVLUo-EPOUu5IFAiA05-60" vertex="1">
          <mxGeometry x="10" y="15" width="180" height="57.5" as="geometry" />
        </mxCell>
        <mxCell id="ktVLUo-EPOUu5IFAiA05-63" value="&lt;b&gt;&lt;font face=&quot;Comic Sans MS&quot; style=&quot;font-size: 30px;&quot;&gt;cAdvisor&lt;/font&gt;&lt;/b&gt;" style="rounded=0;whiteSpace=wrap;html=1;strokeWidth=2;" parent="ktVLUo-EPOUu5IFAiA05-60" vertex="1">
          <mxGeometry width="180" height="60" as="geometry" />
        </mxCell>
        <mxCell id="ktVLUo-EPOUu5IFAiA05-64" value="" style="rounded=0;whiteSpace=wrap;html=1;strokeWidth=2;movable=1;resizable=1;rotatable=1;deletable=1;editable=1;locked=0;connectable=1;" parent="1" vertex="1">
          <mxGeometry x="3405" y="910" width="360" height="275" as="geometry" />
        </mxCell>
        <mxCell id="ktVLUo-EPOUu5IFAiA05-65" value="&lt;font face=&quot;Comic Sans MS&quot; style=&quot;font-size: 30px;&quot;&gt;&lt;b&gt;Pod&lt;/b&gt;&lt;/font&gt;" style="text;html=1;align=center;verticalAlign=middle;whiteSpace=wrap;rounded=0;" parent="1" vertex="1">
          <mxGeometry x="3420" y="920" width="60" height="30" as="geometry" />
        </mxCell>
        <mxCell id="ktVLUo-EPOUu5IFAiA05-66" value="" style="group;strokeWidth=2;strokeColor=none;" parent="1" vertex="1" connectable="0">
          <mxGeometry x="3505" y="982.5" width="200" height="85" as="geometry" />
        </mxCell>
        <mxCell id="ktVLUo-EPOUu5IFAiA05-67" value="&lt;b&gt;&lt;font face=&quot;Comic Sans MS&quot; style=&quot;font-size: 30px;&quot;&gt;cAdvisor&lt;/font&gt;&lt;/b&gt;" style="rounded=0;whiteSpace=wrap;html=1;strokeWidth=2;" parent="ktVLUo-EPOUu5IFAiA05-66" vertex="1">
          <mxGeometry x="20" y="25" width="180" height="60" as="geometry" />
        </mxCell>
        <mxCell id="ktVLUo-EPOUu5IFAiA05-68" value="&lt;b&gt;&lt;font face=&quot;Comic Sans MS&quot; style=&quot;font-size: 30px;&quot;&gt;cAdvisor&lt;/font&gt;&lt;/b&gt;" style="rounded=0;whiteSpace=wrap;html=1;strokeWidth=2;" parent="ktVLUo-EPOUu5IFAiA05-66" vertex="1">
          <mxGeometry x="10" y="15" width="180" height="57.5" as="geometry" />
        </mxCell>
        <mxCell id="ktVLUo-EPOUu5IFAiA05-69" value="&lt;b&gt;&lt;font face=&quot;Comic Sans MS&quot; style=&quot;font-size: 30px;&quot;&gt;cAdvisor&lt;/font&gt;&lt;/b&gt;" style="rounded=0;whiteSpace=wrap;html=1;strokeWidth=2;" parent="ktVLUo-EPOUu5IFAiA05-66" vertex="1">
          <mxGeometry width="180" height="60" as="geometry" />
        </mxCell>
        <mxCell id="ktVLUo-EPOUu5IFAiA05-71" value="" style="endArrow=none;dashed=1;html=1;dashPattern=1 3;strokeWidth=6;rounded=0;exitX=0.998;exitY=0.593;exitDx=0;exitDy=0;exitPerimeter=0;" parent="1" edge="1">
          <mxGeometry width="50" height="50" relative="1" as="geometry">
            <mxPoint x="3270" y="1047.2200000000003" as="sourcePoint" />
            <mxPoint x="3350" y="1047.22" as="targetPoint" />
          </mxGeometry>
        </mxCell>
        <mxCell id="ktVLUo-EPOUu5IFAiA05-73" value="&lt;font style=&quot;font-size: 30px;&quot; face=&quot;Comic Sans MS&quot;&gt;&lt;b&gt;Node&lt;/b&gt;&lt;/font&gt;" style="text;html=1;align=center;verticalAlign=middle;whiteSpace=wrap;rounded=0;" parent="1" vertex="1">
          <mxGeometry x="2230" y="1550" width="60" as="geometry" />
        </mxCell>
        <mxCell id="ktVLUo-EPOUu5IFAiA05-74" value="&lt;b&gt;&lt;font style=&quot;font-size: 30px;&quot; face=&quot;Comic Sans MS&quot;&gt;kubelet&lt;/font&gt;&lt;/b&gt;" style="rounded=0;whiteSpace=wrap;html=1;strokeWidth=3;" parent="1" vertex="1">
          <mxGeometry x="2375" y="1610" width="230" height="100" as="geometry" />
        </mxCell>
        <mxCell id="ktVLUo-EPOUu5IFAiA05-75" value="&lt;b&gt;&lt;font style=&quot;font-size: 30px;&quot; face=&quot;Comic Sans MS&quot;&gt;Proxy&lt;/font&gt;&lt;/b&gt;" style="rounded=0;whiteSpace=wrap;html=1;strokeWidth=3;" parent="1" vertex="1">
          <mxGeometry x="2930" y="1610" width="230" height="100" as="geometry" />
        </mxCell>
        <mxCell id="ktVLUo-EPOUu5IFAiA05-76" value="" style="rounded=0;whiteSpace=wrap;html=1;strokeWidth=3;movable=0;resizable=0;rotatable=0;deletable=0;editable=0;locked=1;connectable=0;" parent="1" vertex="1">
          <mxGeometry x="2230" y="1790" width="1590" height="517.5" as="geometry" />
        </mxCell>
        <mxCell id="ktVLUo-EPOUu5IFAiA05-77" value="" style="rounded=0;whiteSpace=wrap;html=1;strokeWidth=2;movable=1;resizable=1;rotatable=1;deletable=1;editable=1;locked=0;connectable=1;" parent="1" vertex="1">
          <mxGeometry x="2830" y="1920" width="360" height="310" as="geometry" />
        </mxCell>
        <mxCell id="ktVLUo-EPOUu5IFAiA05-82" value="" style="rounded=0;whiteSpace=wrap;html=1;strokeWidth=2;movable=1;resizable=1;rotatable=1;deletable=1;editable=1;locked=0;connectable=1;" parent="1" vertex="1">
          <mxGeometry x="3405" y="1920" width="360" height="310" as="geometry" />
        </mxCell>
        <mxCell id="ktVLUo-EPOUu5IFAiA05-83" value="" style="group;strokeWidth=2;strokeColor=none;" parent="1" vertex="1" connectable="0">
          <mxGeometry x="3490" y="2027.5" width="200" height="85" as="geometry" />
        </mxCell>
        <mxCell id="ktVLUo-EPOUu5IFAiA05-84" value="&lt;b&gt;&lt;font face=&quot;Comic Sans MS&quot; style=&quot;font-size: 30px;&quot;&gt;cAdvisor&lt;/font&gt;&lt;/b&gt;" style="rounded=0;whiteSpace=wrap;html=1;strokeWidth=2;" parent="ktVLUo-EPOUu5IFAiA05-83" vertex="1">
          <mxGeometry x="20" y="25" width="180" height="60" as="geometry" />
        </mxCell>
        <mxCell id="ktVLUo-EPOUu5IFAiA05-85" value="&lt;b&gt;&lt;font face=&quot;Comic Sans MS&quot; style=&quot;font-size: 30px;&quot;&gt;cAdvisor&lt;/font&gt;&lt;/b&gt;" style="rounded=0;whiteSpace=wrap;html=1;strokeWidth=2;" parent="ktVLUo-EPOUu5IFAiA05-83" vertex="1">
          <mxGeometry x="10" y="15" width="180" height="57.5" as="geometry" />
        </mxCell>
        <mxCell id="ktVLUo-EPOUu5IFAiA05-86" value="&lt;b&gt;&lt;font face=&quot;Comic Sans MS&quot; style=&quot;font-size: 30px;&quot;&gt;cAdvisor&lt;/font&gt;&lt;/b&gt;" style="rounded=0;whiteSpace=wrap;html=1;strokeWidth=2;" parent="ktVLUo-EPOUu5IFAiA05-83" vertex="1">
          <mxGeometry width="180" height="60" as="geometry" />
        </mxCell>
        <mxCell id="ktVLUo-EPOUu5IFAiA05-87" value="" style="endArrow=none;dashed=1;html=1;dashPattern=1 3;strokeWidth=6;rounded=0;exitX=0.998;exitY=0.593;exitDx=0;exitDy=0;exitPerimeter=0;" parent="1" edge="1">
          <mxGeometry width="50" height="50" relative="1" as="geometry">
            <mxPoint x="3265" y="2095" as="sourcePoint" />
            <mxPoint x="3345" y="2095" as="targetPoint" />
          </mxGeometry>
        </mxCell>
        <mxCell id="ktVLUo-EPOUu5IFAiA05-88" value="" style="rounded=0;whiteSpace=wrap;html=1;strokeWidth=2;movable=1;resizable=1;rotatable=1;deletable=1;editable=1;locked=0;connectable=1;" parent="1" vertex="1">
          <mxGeometry x="2320" y="1920" width="360" height="310" as="geometry" />
        </mxCell>
        <mxCell id="ktVLUo-EPOUu5IFAiA05-89" value="&lt;font face=&quot;Comic Sans MS&quot; style=&quot;font-size: 30px;&quot;&gt;&lt;b&gt;Pod&lt;/b&gt;&lt;/font&gt;" style="text;html=1;align=center;verticalAlign=middle;whiteSpace=wrap;rounded=0;" parent="1" vertex="1">
          <mxGeometry x="2330" y="1935" width="60" height="30" as="geometry" />
        </mxCell>
        <mxCell id="ktVLUo-EPOUu5IFAiA05-90" value="" style="group;strokeWidth=2;strokeColor=none;" parent="1" vertex="1" connectable="0">
          <mxGeometry x="2390" y="2032.5" width="200" height="85" as="geometry" />
        </mxCell>
        <mxCell id="ktVLUo-EPOUu5IFAiA05-91" value="&lt;b&gt;&lt;font face=&quot;Comic Sans MS&quot; style=&quot;font-size: 30px;&quot;&gt;cAdvisor&lt;/font&gt;&lt;/b&gt;" style="rounded=0;whiteSpace=wrap;html=1;strokeWidth=2;" parent="ktVLUo-EPOUu5IFAiA05-90" vertex="1">
          <mxGeometry x="20" y="25" width="180" height="60" as="geometry" />
        </mxCell>
        <mxCell id="ktVLUo-EPOUu5IFAiA05-92" value="&lt;b&gt;&lt;font face=&quot;Comic Sans MS&quot; style=&quot;font-size: 30px;&quot;&gt;cAdvisor&lt;/font&gt;&lt;/b&gt;" style="rounded=0;whiteSpace=wrap;html=1;strokeWidth=2;" parent="ktVLUo-EPOUu5IFAiA05-90" vertex="1">
          <mxGeometry x="10" y="15" width="180" height="57.5" as="geometry" />
        </mxCell>
        <mxCell id="ktVLUo-EPOUu5IFAiA05-93" value="&lt;b&gt;&lt;font face=&quot;Comic Sans MS&quot; style=&quot;font-size: 30px;&quot;&gt;cAdvisor&lt;/font&gt;&lt;/b&gt;" style="rounded=0;whiteSpace=wrap;html=1;strokeWidth=2;" parent="ktVLUo-EPOUu5IFAiA05-90" vertex="1">
          <mxGeometry width="180" height="60" as="geometry" />
        </mxCell>
        <mxCell id="ktVLUo-EPOUu5IFAiA05-31" value="" style="endArrow=classic;startArrow=classic;html=1;rounded=0;edgeStyle=entityRelationEdgeStyle;strokeWidth=6;exitX=0.998;exitY=0.69;exitDx=0;exitDy=0;exitPerimeter=0;entryX=0;entryY=0.5;entryDx=0;entryDy=0;" parent="1" source="ktVLUo-EPOUu5IFAiA05-4" target="ktVLUo-EPOUu5IFAiA05-74" edge="1">
          <mxGeometry width="50" height="50" relative="1" as="geometry">
            <mxPoint x="1230" y="1034.9999999999995" as="sourcePoint" />
            <mxPoint x="2340" y="1650" as="targetPoint" />
            <Array as="points">
              <mxPoint x="1228.83" y="1003.12" />
            </Array>
          </mxGeometry>
        </mxCell>
        <mxCell id="ktVLUo-EPOUu5IFAiA05-95" value="" style="group;strokeWidth=2;strokeColor=none;" parent="1" vertex="1" connectable="0">
          <mxGeometry x="2900" y="2037.5" width="200" height="85" as="geometry" />
        </mxCell>
        <mxCell id="ktVLUo-EPOUu5IFAiA05-96" value="&lt;b&gt;&lt;font face=&quot;Comic Sans MS&quot; style=&quot;font-size: 30px;&quot;&gt;cAdvisor&lt;/font&gt;&lt;/b&gt;" style="rounded=0;whiteSpace=wrap;html=1;strokeWidth=2;" parent="ktVLUo-EPOUu5IFAiA05-95" vertex="1">
          <mxGeometry x="20" y="25" width="180" height="60" as="geometry" />
        </mxCell>
        <mxCell id="ktVLUo-EPOUu5IFAiA05-97" value="&lt;b&gt;&lt;font face=&quot;Comic Sans MS&quot; style=&quot;font-size: 30px;&quot;&gt;cAdvisor&lt;/font&gt;&lt;/b&gt;" style="rounded=0;whiteSpace=wrap;html=1;strokeWidth=2;" parent="ktVLUo-EPOUu5IFAiA05-95" vertex="1">
          <mxGeometry x="10" y="15" width="180" height="57.5" as="geometry" />
        </mxCell>
        <mxCell id="ktVLUo-EPOUu5IFAiA05-98" value="&lt;b&gt;&lt;font face=&quot;Comic Sans MS&quot; style=&quot;font-size: 30px;&quot;&gt;cAdvisor&lt;/font&gt;&lt;/b&gt;" style="rounded=0;whiteSpace=wrap;html=1;strokeWidth=2;" parent="ktVLUo-EPOUu5IFAiA05-95" vertex="1">
          <mxGeometry width="180" height="60" as="geometry" />
        </mxCell>
        <mxCell id="ktVLUo-EPOUu5IFAiA05-99" value="&lt;font face=&quot;Comic Sans MS&quot; style=&quot;font-size: 30px;&quot;&gt;&lt;b&gt;Pod&lt;/b&gt;&lt;/font&gt;" style="text;html=1;align=center;verticalAlign=middle;whiteSpace=wrap;rounded=0;" parent="1" vertex="1">
          <mxGeometry x="2855" y="1935" width="60" height="30" as="geometry" />
        </mxCell>
        <mxCell id="ktVLUo-EPOUu5IFAiA05-100" value="&lt;font face=&quot;Comic Sans MS&quot; style=&quot;font-size: 30px;&quot;&gt;&lt;b&gt;Pod&lt;/b&gt;&lt;/font&gt;" style="text;html=1;align=center;verticalAlign=middle;whiteSpace=wrap;rounded=0;" parent="1" vertex="1">
          <mxGeometry x="3420" y="1935" width="60" height="30" as="geometry" />
        </mxCell>
        <mxCell id="ktVLUo-EPOUu5IFAiA05-113" value="" style="group" parent="1" vertex="1" connectable="0">
          <mxGeometry x="3021" y="1740" as="geometry" />
        </mxCell>
        <mxCell id="ktVLUo-EPOUu5IFAiA05-101" value="" style="endArrow=classic;html=1;rounded=0;strokeWidth=6;exitX=0.25;exitY=1;exitDx=0;exitDy=0;entryX=0.469;entryY=0.003;entryDx=0;entryDy=0;entryPerimeter=0;" parent="ktVLUo-EPOUu5IFAiA05-113" source="ktVLUo-EPOUu5IFAiA05-74" target="ktVLUo-EPOUu5IFAiA05-93" edge="1">
          <mxGeometry width="50" height="50" relative="1" as="geometry">
            <mxPoint x="-631" y="120" as="sourcePoint" />
            <mxPoint x="-581" y="70" as="targetPoint" />
          </mxGeometry>
        </mxCell>
        <mxCell id="ktVLUo-EPOUu5IFAiA05-102" value="" style="endArrow=classic;html=1;rounded=0;strokeWidth=6;exitX=0.832;exitY=0.988;exitDx=0;exitDy=0;exitPerimeter=0;" parent="ktVLUo-EPOUu5IFAiA05-113" source="ktVLUo-EPOUu5IFAiA05-74" target="ktVLUo-EPOUu5IFAiA05-88" edge="1">
          <mxGeometry width="50" height="50" relative="1" as="geometry">
            <mxPoint x="-491" y="-30" as="sourcePoint" />
            <mxPoint x="-450" y="293" as="targetPoint" />
          </mxGeometry>
        </mxCell>
        <mxCell id="ktVLUo-EPOUu5IFAiA05-103" value="" style="endArrow=classic;html=1;rounded=0;strokeWidth=6;exitX=1;exitY=1;exitDx=0;exitDy=0;entryX=0.531;entryY=0.011;entryDx=0;entryDy=0;entryPerimeter=0;" parent="ktVLUo-EPOUu5IFAiA05-113" source="ktVLUo-EPOUu5IFAiA05-74" target="ktVLUo-EPOUu5IFAiA05-77" edge="1">
          <mxGeometry width="50" height="50" relative="1" as="geometry">
            <mxPoint x="-445" y="-21" as="sourcePoint" />
            <mxPoint x="-483" y="190" as="targetPoint" />
          </mxGeometry>
        </mxCell>
        <mxCell id="ktVLUo-EPOUu5IFAiA05-104" value="" style="endArrow=classic;html=1;rounded=0;strokeWidth=6;exitX=1;exitY=1;exitDx=0;exitDy=0;entryX=0.179;entryY=0.007;entryDx=0;entryDy=0;entryPerimeter=0;" parent="ktVLUo-EPOUu5IFAiA05-113" source="ktVLUo-EPOUu5IFAiA05-74" target="ktVLUo-EPOUu5IFAiA05-82" edge="1">
          <mxGeometry width="50" height="50" relative="1" as="geometry">
            <mxPoint x="-361" y="-50" as="sourcePoint" />
            <mxPoint x="449" y="180" as="targetPoint" />
          </mxGeometry>
        </mxCell>
        <mxCell id="ktVLUo-EPOUu5IFAiA05-105" value="" style="endArrow=classic;html=1;rounded=0;strokeWidth=6;exitX=0.398;exitY=1;exitDx=0;exitDy=0;exitPerimeter=0;entryX=0.53;entryY=0.009;entryDx=0;entryDy=0;entryPerimeter=0;" parent="ktVLUo-EPOUu5IFAiA05-113" source="ktVLUo-EPOUu5IFAiA05-75" target="ktVLUo-EPOUu5IFAiA05-77" edge="1">
          <mxGeometry width="50" height="50" relative="1" as="geometry">
            <mxPoint x="-445" y="-21" as="sourcePoint" />
            <mxPoint x="-483" y="190" as="targetPoint" />
            <Array as="points">
              <mxPoint />
            </Array>
          </mxGeometry>
        </mxCell>
        <mxCell id="ktVLUo-EPOUu5IFAiA05-106" value="" style="endArrow=classic;html=1;rounded=0;strokeWidth=6;exitX=1;exitY=1;exitDx=0;exitDy=0;entryX=0.182;entryY=0.001;entryDx=0;entryDy=0;entryPerimeter=0;" parent="ktVLUo-EPOUu5IFAiA05-113" source="ktVLUo-EPOUu5IFAiA05-75" target="ktVLUo-EPOUu5IFAiA05-82" edge="1">
          <mxGeometry width="50" height="50" relative="1" as="geometry">
            <mxPoint x="159" y="-18" as="sourcePoint" />
            <mxPoint x="575" y="195" as="targetPoint" />
          </mxGeometry>
        </mxCell>
        <mxCell id="ktVLUo-EPOUu5IFAiA05-121" value="" style="endArrow=classic;html=1;rounded=0;strokeWidth=6;exitX=0.303;exitY=1.004;exitDx=0;exitDy=0;exitPerimeter=0;" parent="1" source="ktVLUo-EPOUu5IFAiA05-39" target="ktVLUo-EPOUu5IFAiA05-54" edge="1">
          <mxGeometry width="50" height="50" relative="1" as="geometry">
            <mxPoint x="2430" y="850" as="sourcePoint" />
            <mxPoint x="2480" y="800" as="targetPoint" />
          </mxGeometry>
        </mxCell>
        <mxCell id="ktVLUo-EPOUu5IFAiA05-122" value="" style="endArrow=classic;html=1;rounded=0;strokeWidth=6;exitX=0.614;exitY=0.975;exitDx=0;exitDy=0;exitPerimeter=0;" parent="1" source="ktVLUo-EPOUu5IFAiA05-39" target="ktVLUo-EPOUu5IFAiA05-45" edge="1">
          <mxGeometry width="50" height="50" relative="1" as="geometry">
            <mxPoint x="2450" y="785" as="sourcePoint" />
            <mxPoint x="2470" y="980" as="targetPoint" />
          </mxGeometry>
        </mxCell>
        <mxCell id="ktVLUo-EPOUu5IFAiA05-123" value="" style="endArrow=classic;html=1;rounded=0;strokeWidth=6;exitX=0.5;exitY=1;exitDx=0;exitDy=0;" parent="1" source="ktVLUo-EPOUu5IFAiA05-40" target="ktVLUo-EPOUu5IFAiA05-58" edge="1">
          <mxGeometry width="50" height="50" relative="1" as="geometry">
            <mxPoint x="3028.5" y="778" as="sourcePoint" />
            <mxPoint x="3013.5" y="915" as="targetPoint" />
          </mxGeometry>
        </mxCell>
        <mxCell id="ktVLUo-EPOUu5IFAiA05-124" value="" style="endArrow=classic;html=1;rounded=0;strokeWidth=6;exitX=1;exitY=1;exitDx=0;exitDy=0;entryX=0.329;entryY=-0.003;entryDx=0;entryDy=0;entryPerimeter=0;" parent="1" source="ktVLUo-EPOUu5IFAiA05-39" target="ktVLUo-EPOUu5IFAiA05-58" edge="1">
          <mxGeometry width="50" height="50" relative="1" as="geometry">
            <mxPoint x="2670" y="770" as="sourcePoint" />
            <mxPoint x="2688" y="1005" as="targetPoint" />
          </mxGeometry>
        </mxCell>
        <mxCell id="ktVLUo-EPOUu5IFAiA05-125" value="" style="endArrow=classic;html=1;rounded=0;strokeWidth=6;exitX=1;exitY=1;exitDx=0;exitDy=0;entryX=0.039;entryY=-0.001;entryDx=0;entryDy=0;entryPerimeter=0;" parent="1" source="ktVLUo-EPOUu5IFAiA05-39" target="ktVLUo-EPOUu5IFAiA05-64" edge="1">
          <mxGeometry width="50" height="50" relative="1" as="geometry">
            <mxPoint x="2750" y="770" as="sourcePoint" />
            <mxPoint x="3113" y="904" as="targetPoint" />
          </mxGeometry>
        </mxCell>
        <mxCell id="ktVLUo-EPOUu5IFAiA05-127" value="" style="endArrow=classic;html=1;rounded=0;strokeWidth=6;exitX=0.821;exitY=1;exitDx=0;exitDy=0;entryX=0.044;entryY=0.003;entryDx=0;entryDy=0;exitPerimeter=0;entryPerimeter=0;" parent="1" source="ktVLUo-EPOUu5IFAiA05-40" target="ktVLUo-EPOUu5IFAiA05-64" edge="1">
          <mxGeometry width="50" height="50" relative="1" as="geometry">
            <mxPoint x="3091" y="800" as="sourcePoint" />
            <mxPoint x="3910" y="935" as="targetPoint" />
          </mxGeometry>
        </mxCell>
      </root>
    </mxGraphModel>
  </diagram>
</mxfile>
